classDiagram
    class Request {
        +string[] fnrListe
        +int omraade
    }

    class Omraade {
        <<enumeration>>
        HELSEHJELP = 3
        UNGDOM = 6
    }

    class Response {
        +Map erAktivListe
    }

    class ErAktivStatus {
        +bool erAktivSelv
        +bool erAktivViaAndre
        +bool tildeltFullmakt
    }

    Request --> Omraade : omraade
    Response *-- ErAktivStatus : contains
