classDiagram
    class MsgHead {
        +MsgInfo msgInfo
        +Document document
    }

    class EpisodeOfCare {
        +string id
        +string status
        +Meta meta
        +Reference patient
        +Reference managingOrg
        +CareTeam careTeam
    }

    class CareTeam {
        +string name
        +Participant[] participant
    }

    class Participant {
        +Role role
        +Reference member
    }

    class AccessSecurity {
        <<enumeration>>
        N
        NORN_FORANS
        NORN_UNGDOM
    }

    MsgHead *-- EpisodeOfCare : document
    EpisodeOfCare *-- CareTeam
    CareTeam *-- Participant
    EpisodeOfCare --> AccessSecurity : meta.security
