classDiagram
    class MsgHead {
        +MsgInfo msgInfo
        +Document document
    }

    class MsgInfo {
        +string msgId
        +Type type
        +Sender sender
        +Receiver receiver
        +Patient patient
        +Ack ack
    }

    class TjenesteOversikt {
        +Tjeneste[] tjenester
    }

    class Tjeneste {
        +string id
        +string navn
        +bool digitalInnbyggertjeneste
        +RelaterteRoller relaterteRoller
    }

    class RelaterteRoller {
        +Helsepersonell[] helsepersonell
    }

    class Applikasjonskvittering {
        +string msgId
        +string status
        +string errorCode
    }

    MsgHead *-- MsgInfo
    MsgHead *-- TjenesteOversikt
    TjenesteOversikt *-- Tjeneste
    Tjeneste *-- RelaterteRoller
